<svg id="Layer_1" data-name="Layer 1" xmlns="http://www.w3.org/2000/svg" viewBox="0 0 30.54 30.54"><defs><style>.cls-1,.cls-2{fill:#010101;}.cls-2{fill-rule:evenodd;}</style></defs><title>Facebook</title><path class="cls-1" d="M25,11.82A13.18,13.18,0,1,1,11.82,25,13.19,13.19,0,0,1,25,11.82m0-2.09A15.27,15.27,0,1,0,40.27,25,15.27,15.27,0,0,0,25,9.73Z" transform="translate(-9.73 -9.73)"/><path class="cls-2" d="M27,19.33c.56,0,1.11,0,1.67,0h.23V16.44c-.3,0-.61-.08-.92-.09-.57,0-1.14-.05-1.71,0a4.23,4.23,0,0,0-2.41.74,3.6,3.6,0,0,0-1.45,2.42,8.41,8.41,0,0,0-.1,1.24c0,.64,0,1.29,0,1.94v.24H19.5v3.23h2.75v8.11h3.36v-8.1h2.74c.14-1.07.27-2.13.42-3.24H25.58s0-1.6,0-2.29C25.64,19.65,26.2,19.36,27,19.33Z" transform="translate(-9.73 -9.73)"/></svg>