<svg id="Layer_1" data-name="Layer 1" xmlns="http://www.w3.org/2000/svg" viewBox="0 0 30.51 30.51"><defs><style>.cls-1{fill:#010101;}</style></defs><title>Instagram</title><path class="cls-1" d="M25,11.84A13.17,13.17,0,1,1,11.83,25,13.19,13.19,0,0,1,25,11.84m0-2.09A15.26,15.26,0,1,0,40.26,25,15.26,15.26,0,0,0,25,9.75Z" transform="translate(-9.74 -9.75)"/><path class="cls-1" d="M33.11,21a4.33,4.33,0,0,0-1.31-2.76,4.48,4.48,0,0,0-3-1.2,58.55,58.55,0,0,0-8,.09,4.09,4.09,0,0,0-3.5,3.14,45.08,45.08,0,0,0-.08,9.07,4.09,4.09,0,0,0,3.24,3.53,48.58,48.58,0,0,0,9,0A4.09,4.09,0,0,0,33,29.7C33.37,28.29,33.24,22.29,33.11,21Zm-1.49,8.08a2.73,2.73,0,0,1-2.57,2.44,48.16,48.16,0,0,1-8.33-.12,2.64,2.64,0,0,1-2-2.28,54.08,54.08,0,0,1,0-8.16,2.74,2.74,0,0,1,2.56-2.43,57.1,57.1,0,0,1,8,0,2.73,2.73,0,0,1,2.44,2.57A58.52,58.52,0,0,1,31.62,29.09Zm-6.46-8.2A4.15,4.15,0,1,0,29.3,25,4.14,4.14,0,0,0,25.16,20.89Zm0,6.83a2.68,2.68,0,1,1,2.71-2.66A2.69,2.69,0,0,1,25.13,27.72Zm5.31-7a1,1,0,1,1-1.94,0,1,1,0,0,1,1.94,0Z" transform="translate(-9.74 -9.75)"/><path class="cls-1" d="M33.11,21a4.33,4.33,0,0,0-1.31-2.76,4.48,4.48,0,0,0-3-1.2,58.55,58.55,0,0,0-8,.09,4.09,4.09,0,0,0-3.5,3.14,45.08,45.08,0,0,0-.08,9.07,4.09,4.09,0,0,0,3.24,3.53,48.58,48.58,0,0,0,9,0A4.09,4.09,0,0,0,33,29.7C33.37,28.29,33.24,22.29,33.11,21Zm-1.49,8.08a2.73,2.73,0,0,1-2.57,2.44,48.16,48.16,0,0,1-8.33-.12,2.64,2.64,0,0,1-2-2.28,54.08,54.08,0,0,1,0-8.16,2.74,2.74,0,0,1,2.56-2.43,57.1,57.1,0,0,1,8,0,2.73,2.73,0,0,1,2.44,2.57A58.52,58.52,0,0,1,31.62,29.09Zm-6.46-8.2A4.15,4.15,0,1,0,29.3,25,4.14,4.14,0,0,0,25.16,20.89Zm0,6.83a2.68,2.68,0,1,1,2.71-2.66A2.69,2.69,0,0,1,25.13,27.72Zm5.31-7a1,1,0,1,1-1.94,0,1,1,0,0,1,1.94,0Z" transform="translate(-9.74 -9.75)"/></svg>