<svg id="Layer_1" data-name="Layer 1" xmlns="http://www.w3.org/2000/svg" viewBox="0 0 30.5 30.5"><defs><style>.cls-1{fill:#010101;}</style></defs><title>Tiktok</title><path class="cls-1" d="M25,11.84A13.16,13.16,0,1,1,11.84,25,13.17,13.17,0,0,1,25,11.84m0-2.09A15.25,15.25,0,1,0,40.25,25,15.25,15.25,0,0,0,25,9.75Z" transform="translate(-9.75 -9.75)"/><path class="cls-1" d="M33.06,23.2a3.71,3.71,0,0,1-.47,0A5,5,0,0,1,28.39,21V28.7A5.73,5.73,0,1,1,22.66,23h0L23,23v2.82l-.36,0a2.92,2.92,0,0,0,0,5.84,3,3,0,0,0,3-2.89l0-13.15h2.7a5,5,0,0,0,4.63,4.49V23.2" transform="translate(-9.75 -9.75)"/></svg>