<svg id="Layer_1" data-name="Layer 1" xmlns="http://www.w3.org/2000/svg" viewBox="0 0 30.53 30.53"><defs><style>.cls-1,.cls-2{fill:#010101;}.cls-2{fill-rule:evenodd;}</style></defs><title>Twitter</title><path class="cls-1" d="M25,11.83A13.17,13.17,0,1,1,11.83,25,13.19,13.19,0,0,1,25,11.83m0-2.09A15.26,15.26,0,1,0,40.26,25,15.26,15.26,0,0,0,25,9.74Z" transform="translate(-9.74 -9.74)"/><path class="cls-2" d="M22.22,29.52A3.59,3.59,0,0,1,18.88,27,3.48,3.48,0,0,0,20.42,27l0,0a3.54,3.54,0,0,1-2.33-1.65,3.49,3.49,0,0,1-.53-1.9,3.48,3.48,0,0,0,1.6.43,3.62,3.62,0,0,1-1.48-2.18,3.54,3.54,0,0,1,.39-2.6,10.23,10.23,0,0,0,7.4,3.75c0-.14-.05-.26-.06-.39a3.59,3.59,0,0,1,6.1-3,.18.18,0,0,0,.19.06,7.47,7.47,0,0,0,2.09-.8l0,0h0a3.6,3.6,0,0,1-1.54,1.95,6.88,6.88,0,0,0,2-.53h0c-.14.18-.27.37-.42.54a7,7,0,0,1-1.3,1.24.13.13,0,0,0-.06.11,9.48,9.48,0,0,1-.07,1.6,10.72,10.72,0,0,1-.92,3.19,10.18,10.18,0,0,1-1.94,2.83,9.63,9.63,0,0,1-4.93,2.75,11.26,11.26,0,0,1-2,.24A10.24,10.24,0,0,1,17,31.07L16.92,31a7.18,7.18,0,0,0,5.3-1.49Z" transform="translate(-9.74 -9.74)"/></svg>