<svg id="Layer_1" data-name="Layer 1" xmlns="http://www.w3.org/2000/svg" viewBox="0 0 30.5 30.5"><defs><style>.cls-1,.cls-2{fill:#010101;}.cls-2{fill-rule:evenodd;}</style></defs><title>Youtube</title><path class="cls-1" d="M25,11.84A13.16,13.16,0,1,1,11.84,25,13.17,13.17,0,0,1,25,11.84m0-2.09A15.25,15.25,0,1,0,40.25,25,15.25,15.25,0,0,0,25,9.75Z" transform="translate(-9.75 -9.75)"/><path class="cls-2" d="M18.63,30.29A1.87,1.87,0,0,1,17.4,29.1c-.53-1.47-.69-7.6.34-8.81a2,2,0,0,1,1.34-.71c2.76-.3,11.31-.26,12.29.1a1.91,1.91,0,0,1,1.21,1.16c.59,1.52.61,7-.07,8.49a1.93,1.93,0,0,1-.87.87C30.61,30.75,20,30.74,18.63,30.29ZM23,27.42l5-2.59-5-2.59Z" transform="translate(-9.75 -9.75)"/></svg>